<svg width="45" height="50" viewBox="0 0 50 50" fill="none" xmlns="http://www.w3.org/2000/svg">
    <circle cx="25" cy="25" r="25" fill="#0090C9" />
    <path
    fillRule="evenodd"
    clipRule="evenodd"
    d="M25 0C38.8071 0 50 11.1929 50 25C50 38.8071 38.8071 50 25 50C11.1929 50 0 38.8071 0 25C0 11.1929 11.1929 0 25 0ZM25 5C24.5802 5 24.1633 5.01294 23.7499 5.03843L23.75 10.669L12.5 20L6.85602 16.5746C5.66497 19.1352 5 21.9899 5 25C5 32.9077 9.58927 39.7435 16.2497 42.9893L16.25 36.7675L11.3485 31.8663L9.94016 24.8246L11.8963 20.9122L18.9925 23.75H27.3341L28.7927 33.9598L23.3078 44.9294C23.8657 44.9762 24.4301 45 25 45C32.0558 45 38.2581 41.3463 41.8184 35.8277L37.82 22.5H34.1537L31.1309 14.9431L34.5152 8.17449L40.1249 11.9137C36.4576 7.67892 31.0417 5 25 5Z"
    fill="#25C402"
    />
</svg>